<!-- License: MIT. Made by Ionicons: https://github.com/ionic-team/ionicons -->
<svg width="200" height="200" style="fill:#00adb5" viewBox="0 0 100 100" xmlns="http://www.w3.org/2000/svg"><title>ionicons-v5-f</title>
<path xmlns="http://www.w3.org/2000/svg" d="M93.299,35.286l-0.021,0.292c-0.147,0.994-0.397,1.791-0.77,2.481c-1.69,3.218-5.218,4.192-7.525,4.022l-0.028,0.076  c-0.069,0.153-0.111,0.247-0.158,0.338c-0.508,0.939-1.223,1.747-2.07,2.344l-0.199,0.125c-0.22,0.139-0.439,0.276-0.666,0.383  c-0.301,0.127-0.584,0.239-0.863,0.342c-0.634,0.16-1.201,0.289-1.748,0.289c-0.135,0.008-0.277,0.012-0.416,0.012  c-0.887,0-1.652-0.164-2.347-0.341c-1.346-0.388-2.415-0.827-3.282-1.345c-0.424-0.266-0.765-0.573-1.023-0.918  c-0.246-0.376-0.396-0.749-0.466-1.134c-0.134-0.728,0.028-1.458,0.457-2.052c0.411-0.574,1.036-0.967,1.714-1.077  c0.745-0.108,1.463,0.096,2.21,0.594l0.281,0.199c0.43,0.307,0.965,0.69,1.623,0.964c0.3,0.116,0.761,0.277,1.159,0.283  c0.087,0.005,0.146,0.008,0.204,0.008c0.314,0,0.579-0.067,0.808-0.204c0.235-0.149,0.44-0.36,0.617-0.608  c-0.134-0.203-0.235-0.429-0.296-0.672c-0.335-0.531-1.958-2.001-3.75-3.277c-0.479-0.341-0.797-0.849-0.895-1.429  c-0.098-0.58,0.037-1.163,0.378-1.643c0.681-0.953,2.115-1.196,3.071-0.517c2.515,1.791,4.139,3.311,4.94,4.609  c0.304,0.111,0.609,0.223,0.894,0.304l0.337,0.044c0.071,0.009,0.118,0.013,0.166,0.013l0.164,0c0.147,0,0.297-0.015,0.448-0.032  c0.419-0.063,0.756-0.152,1.042-0.277c0.715-0.295,1.292-0.782,1.632-1.374c0.153-0.256,0.27-0.6,0.362-1.059  c-0.006-0.015,0.004-0.11,0.015-0.205c0.014-0.122,0.026-0.228,0.016-0.321l-0.069-0.69c-0.143-0.835-0.574-1.798-1.248-2.784  c-1.149-1.689-2.937-3.403-5.465-5.239c-1.147-0.844-2.388-1.63-3.461-2.3l-1.835-1.072c-0.216-0.136-0.394-0.219-0.569-0.302  l-0.277-0.136c-0.157-0.077-0.341-0.144-0.524-0.211c-0.121-0.044-0.242-0.089-0.358-0.136c-2.173-0.739-4.806-1.252-8.257-1.607  c-3.308-0.292-6.06-0.314-8.521-0.071c-0.719,0.06-1.428,0.171-2.037,0.271c-0.663,0.129-1.265,0.272-1.987,0.445l-12.177,2.966  c-1.755,0.454-3.476,0.838-5.14,1.21c-0.764,0.17-1.515,0.338-2.25,0.509l-6.541,1.506c-2.068,0.542-4.221,0.855-5.892,0.856  c-0.253,0.007-0.442,0.011-0.628,0.011c-0.379,0-0.744-0.015-1.096-0.029c-0.282-0.011-0.557-0.022-0.827-0.025l-2.079-0.145  c-0.603-0.058-1.134-0.094-1.595-0.125c-0.492-0.033-0.907-0.062-1.237-0.104c-0.608-0.078-1.142-0.215-1.587-0.406  c-0.426-0.182-0.823-0.444-1.09-0.718c-0.544-0.551-0.843-1.268-0.818-1.965c0.03-0.804,0.494-1.48,1.306-1.905  c0.422-0.218,0.846-0.344,1.378-0.411c0.528-0.063,1.098-0.049,1.689,0.054c0.291,0.06,0.608,0.14,0.969,0.23  c0.479,0.12,1.038,0.261,1.682,0.394l0.471,0.082c0.422,0.074,0.874,0.154,1.352,0.224c0.203,0.018,0.443,0.046,0.689,0.076  c0.458,0.055,0.93,0.112,1.404,0.122l1.332,0.033c0.187,0,0.369-0.02,0.554-0.04c0.155-0.016,0.312-0.032,0.472-0.041  c0.547-0.015,1.214-0.142,1.921-0.276c0.271-0.052,0.547-0.104,0.82-0.151l8.273-1.591c1.807-0.353,3.676-0.717,5.594-1.165  l12.265-2.792c0.657-0.15,1.427-0.327,2.141-0.455c0.744-0.118,1.533-0.234,2.333-0.296c2.697-0.25,5.566-0.223,9.206,0.096  c2.737,0.286,5.956,0.721,9.141,1.779c0.149,0.058,0.273,0.103,0.396,0.147c0.262,0.095,0.523,0.191,0.792,0.318l0.241,0.115  c0.321,0.152,0.648,0.308,0.896,0.463l1.913,1.096c1.222,0.746,2.506,1.542,3.743,2.427c2.012,1.431,4.567,3.413,6.466,6.054  c1.04,1.458,1.685,2.854,1.973,4.271l0.109,0.585l0.048,0.651C93.351,34.643,93.325,34.97,93.299,35.286z M26.028,51.453  l1.712,0.278c0.532,0.085,1.055,0.104,1.561,0.122l1.126,0.041c0.142,0.009,0.285,0.014,0.429,0.014  c0.183,0,0.367-0.008,0.543-0.025l0.607-0.04c0.418-0.026,0.84-0.052,1.304-0.108c0.198-0.04,0.396-0.075,0.595-0.111  c0.441-0.08,0.885-0.16,1.348-0.28c1.11-0.338,2.545-0.843,3.777-1.735c1.146-0.749,2.1-1.681,2.941-2.504  c0.869-0.851,1.69-1.653,2.492-2.043c0.102-0.04,0.201-0.086,0.3-0.133c0.107-0.051,0.213-0.104,0.3-0.129  c0.246-0.055,0.49-0.114,0.701-0.17c0.125-0.024,0.258-0.026,0.392-0.031c0.11-0.004,0.221-0.008,0.315-0.017l0.302-0.028  l1.237,0.128c0.167,0.016,0.366,0.049,0.564,0.082l0.365,0.058c0.661,0.095,1.324,0.173,1.989,0.232  c2.69,0.232,5.375,0.185,7.935-0.135c1.41-0.175,2.684-0.414,3.897-0.732c1.565-0.416,2.746-0.861,3.83-1.444  c0.532-0.289,1.227-0.705,1.891-1.356c0.34-0.331,0.626-0.703,0.879-1.145c0.25-0.458,0.436-1.052,0.468-1.475  c0.285-1.825-0.29-3.454-0.82-4.494c-0.282-0.57-0.637-1.133-1.083-1.72c-0.198-0.263-0.406-0.514-0.617-0.749  c-0.107-0.123-0.218-0.242-0.331-0.358c-0.138-0.144-0.334-0.334-0.506-0.486l-0.108-0.086c-0.073-0.06-0.146-0.118-0.225-0.167  l-0.126-0.137l-0.319-0.138l-0.055,0.062c-0.154-0.065-0.308-0.109-0.448-0.149l-0.204-0.06c-0.095-0.029-0.193-0.057-0.256-0.07  l-0.634-0.116c-0.366-0.067-0.715-0.12-1.06-0.171l-0.524-0.081c-2.05-0.307-3.95-0.547-5.698-0.76l-8.412-1.006  c-0.442-0.056-0.845-0.115-1.204-0.168c-0.472-0.069-0.87-0.128-1.211-0.156l-0.205-0.004c-1.073,0-2.003,0.348-2.619,0.981  c-0.482,0.496-0.738,1.125-0.721,1.771c0.035,1.33,1.059,2.671,3.353,2.671c0,0,0.001,0,0.001,0c0.225-0.002,0.49-0.019,0.793-0.039  c0.424-0.027,0.928-0.06,1.518-0.06l0.593-0.004c0.865,0,1.867,0.024,2.989,0.066c1.388,0.05,2.968,0.138,4.7,0.263  c1.929,0.131,3.809,0.297,5.583,0.494l0.513,0.061c0.324,0.038,0.65,0.075,0.97,0.123l0.627,0.094l0.069,0.062  c0.077,0.076,0.154,0.152,0.235,0.24c0.152,0.159,0.299,0.327,0.437,0.5c0.313,0.389,0.551,0.743,0.731,1.087  c0.417,0.772,0.591,1.521,0.497,2.208c-0.005,0.092-0.01,0.104-0.026,0.159c-0.043,0.074-0.112,0.184-0.226,0.295  c-0.227,0.234-0.587,0.494-1.01,0.73c-1.575,0.857-3.725,1.473-6.39,1.828c-2.295,0.301-4.737,0.35-7.151,0.141  c-0.598-0.052-1.192-0.125-1.78-0.208l-0.305-0.049c-0.199-0.033-0.398-0.066-0.636-0.093l-1.655-0.166l-0.898,0.043  c-0.271,0.012-0.542,0.025-0.844,0.079l-1.128,0.268c-0.272,0.08-0.533,0.196-0.792,0.313l-0.336,0.149  c-1.38,0.689-2.399,1.658-3.299,2.512l-0.083,0.079c-0.906,0.887-1.682,1.589-2.532,2.134c-1.512,1.002-3.37,1.51-5.521,1.51  l-0.19,0.001c-0.227,0.02-0.45,0.012-0.705-0.013l-1.014-0.066c-0.434-0.026-0.843-0.051-1.24-0.13l-1.436-0.28  c-0.468-0.096-0.932-0.229-1.392-0.366c-1.602-0.463-3.299-1.073-5.187-1.862c-1.588-0.67-3.032-1.327-4.292-1.951  c-1.212-0.595-2.305-1.162-3.25-1.688c-0.464-0.253-0.868-0.502-1.22-0.719c-0.34-0.209-0.634-0.39-0.887-0.52  c-1.526-0.79-3.179-0.111-3.631,1.368c-0.412,1.286-0.171,2.875,1.297,3.528c0.302,0.132,0.661,0.262,1.079,0.412  c0.366,0.132,0.779,0.281,1.238,0.463l3.502,1.4c1.456,0.586,3.003,1.175,4.602,1.751c1.589,0.566,3.509,1.219,5.691,1.764  C24.932,51.221,25.471,51.353,26.028,51.453z M84.516,77.272c-0.255-0.029-0.576-0.044-0.955-0.062  c-0.38-0.017-0.821-0.038-1.329-0.08l-1.681-0.096c-0.218,0-0.44-0.007-0.668-0.015c-0.426-0.013-0.911-0.026-1.331-0.004  c-1.371,0.001-3.194,0.273-4.859,0.724l-5.221,1.229c-0.612,0.145-1.238,0.287-1.875,0.432c-1.304,0.296-2.652,0.603-4.024,0.961  l-9.719,2.389c-0.58,0.14-1.04,0.25-1.557,0.351c-0.522,0.085-1.048,0.167-1.599,0.214c-1.941,0.194-4.125,0.176-6.73-0.055  c-2.723-0.279-4.797-0.683-6.499-1.263c-0.092-0.038-0.188-0.073-0.283-0.108c-0.139-0.051-0.277-0.101-0.391-0.158l-0.225-0.11  c-0.127-0.061-0.258-0.122-0.424-0.226l-1.456-0.854c-0.854-0.535-1.84-1.161-2.736-1.824c-1.977-1.438-3.371-2.779-4.261-4.099  c-0.504-0.743-0.823-1.459-0.93-2.104c-0.066-0.285-0.039-0.564-0.019-0.805c0.066-0.315,0.145-0.544,0.248-0.71  c0.229-0.392,0.621-0.715,1.115-0.913c0.255-0.11,0.546-0.16,0.739-0.186c0.091-0.008,0.175-0.021,0.362-0.014l0.023-0.006  l0.376,0.062c0.071,0.01,0.142,0.02,0.197,0.035c0.074,0.028,0.154,0.061,0.229,0.09c0.552,0.841,1.675,2.043,4.024,3.716  c0.375,0.267,0.816,0.408,1.276,0.408c0.711,0,1.382-0.346,1.794-0.924c0.705-0.989,0.474-2.367-0.515-3.072  c-1.295-0.923-2.526-2.019-2.843-2.449c-0.028-0.097-0.068-0.187-0.107-0.276c0.063-0.06,0.129-0.111,0.196-0.151  c0.267-0.148,0.765-0.092,1.321,0.145c0.432,0.192,0.789,0.462,1.103,0.7c0.101,0.076,0.194,0.146,0.29,0.214  c0.603,0.408,1.257,0.532,1.939,0.345c0.591-0.168,1.162-0.579,1.568-1.126c0.428-0.578,0.635-1.258,0.584-1.916  c-0.029-0.367-0.133-0.714-0.328-1.06c-0.21-0.323-0.5-0.601-0.87-0.832c-0.699-0.411-1.598-0.767-2.764-1.093  c-0.582-0.144-1.223-0.276-1.974-0.276c-0.129,0-0.261,0.004-0.383,0.012c-0.639,0.022-1.881,0.184-3.027,1.006  c-0.734,0.52-1.354,1.227-1.813,2.088c-0.008,0.018-0.015,0.036-0.021,0.053l-0.148-0.001l-0.218,0.009  c-0.311,0.007-0.617,0.047-0.94,0.1c-0.683,0.129-1.271,0.315-1.793,0.565c-1.292,0.601-2.35,1.593-2.979,2.791  c-0.319,0.598-0.532,1.28-0.655,2.113c-0.077,0.827-0.042,1.53,0.104,2.132c0.246,1.191,0.785,2.355,1.649,3.561  c1.549,2.14,3.531,3.686,5.264,4.915c1.009,0.72,2.08,1.38,3.017,1.951l1.53,0.874c0.206,0.128,0.491,0.265,0.769,0.396l0.173,0.082  c0.225,0.106,0.44,0.185,0.657,0.263l0.322,0.12c2.565,0.851,5.061,1.194,7.384,1.438C44.245,87.031,45.677,87.1,47,87.1  c1.069,0,2.064-0.043,3.036-0.133c0.68-0.053,1.364-0.155,1.893-0.24c0.557-0.099,1.166-0.237,1.677-0.354l9.842-2.221  c1.548-0.357,3.055-0.646,4.513-0.925l6.543-1.23c0.21-0.035,0.423-0.074,0.633-0.113c0.569-0.104,1.106-0.203,1.521-0.209  c0.128-0.005,0.253-0.017,0.376-0.029c0.133-0.013,0.265-0.026,0.4-0.026l1.049,0.036c0.373,0.011,0.741,0.06,1.091,0.106  c0.193,0.025,0.382,0.05,0.535,0.064c0.39,0.062,0.758,0.132,1.099,0.197l0.328,0.062c0.492,0.109,0.92,0.227,1.29,0.328  c0.303,0.083,0.568,0.155,0.819,0.209c0.505,0.086,0.97,0.08,1.418,0c0.435-0.082,0.784-0.218,1.174-0.46  c0.675-0.436,1.062-1.109,1.09-1.934C87.267,78.511,86.296,77.488,84.516,77.272z M90.211,62.972  c-0.245-0.105-0.537-0.203-0.877-0.316c-0.296-0.099-0.63-0.209-0.999-0.35l-2.815-1.089c-1.228-0.48-2.473-0.943-3.702-1.376  c-1.289-0.452-2.842-0.972-4.588-1.398c-0.429-0.109-0.866-0.215-1.322-0.295l-1.392-0.221c-0.441-0.069-0.869-0.083-1.283-0.096  l-0.215-0.007c-0.158,0-0.315-0.008-0.473-0.016c-0.337-0.018-0.691-0.03-1.019,0.004l-0.491,0.034  c-0.343,0.022-0.688,0.044-1.073,0.092l-0.455,0.085c-0.373,0.068-0.748,0.137-1.145,0.24c-0.844,0.258-2.089,0.69-3.126,1.443  c-0.934,0.621-1.744,1.391-2.479,2.127c-0.726,0.718-1.288,1.219-1.797,1.477c-0.083,0.032-0.165,0.07-0.246,0.109  c-0.069,0.033-0.137,0.069-0.18,0.082c-0.188,0.041-0.373,0.085-0.517,0.127c-0.087,0.017-0.181,0.018-0.274,0.021  c-0.087,0.002-0.174,0.006-0.248,0.013l-0.205,0.022l-0.951-0.098c-0.128-0.013-0.288-0.039-0.448-0.065l-0.295-0.046  c-0.534-0.075-1.071-0.141-1.607-0.187c-2.176-0.187-4.343-0.151-6.414,0.106c-1.148,0.142-2.182,0.335-3.159,0.591  c-0.859,0.227-1.993,0.565-3.143,1.182c-0.421,0.226-0.974,0.55-1.514,1.054c-0.312,0.29-1.057,1.076-1.25,2.133  c-0.246,1.38-0.029,2.72,0.659,4.089c0.226,0.467,0.512,0.931,0.871,1.414c0.16,0.221,0.332,0.429,0.511,0.637l0.317,0.342  c0.1,0.108,0.21,0.212,0.321,0.317l0.208,0.17c0.048,0.025,0.091,0.059,0.172,0.117l0.386,0.253l0.078-0.052  c0.119,0.051,0.25,0.095,0.402,0.135l0.558,0.161l0.354,0.063c0.319,0.059,0.625,0.106,0.93,0.153l0.376,0.059  c1.634,0.253,3.156,0.453,4.556,0.632l6.717,0.868c0.363,0.051,0.693,0.108,0.985,0.158c0.37,0.064,0.685,0.117,0.965,0.143  l0.143,0.003c0.824,0,1.534-0.284,2.056-0.82c0.499-0.513,0.772-1.221,0.752-1.943c-0.038-1.324-0.876-2.66-2.665-2.66l-0.104,0.001  c-0.186,0.004-0.405,0.024-0.656,0.047c-0.331,0.031-0.722,0.067-1.183,0.075c-0.784,0.027-1.742,0.019-2.844-0.01  c-1.095-0.028-2.354-0.087-3.743-0.178c-1.526-0.092-3.023-0.215-4.444-0.366l-0.4-0.044c-0.27-0.029-0.54-0.058-0.805-0.095  l-0.325-0.04c-0.026-0.026-0.052-0.049-0.075-0.07l-0.093-0.097c-0.114-0.12-0.226-0.244-0.331-0.375  c-0.233-0.287-0.407-0.542-0.534-0.779c-0.173-0.326-0.282-0.602-0.328-0.811l-0.026-0.151c-0.015-0.083-0.031-0.169-0.032-0.306  c-0.005-0.042,0.004-0.154,0.008-0.202l0.003-0.051c0.017-0.055,0.043-0.1,0.137-0.193c0.15-0.151,0.396-0.328,0.685-0.494  c1.198-0.658,2.916-1.15,4.966-1.423c1.808-0.238,3.731-0.277,5.628-0.113c0.471,0.042,0.938,0.098,1.399,0.164l0.236,0.038  c0.159,0.026,0.318,0.053,0.516,0.075l1.37,0.136l0.734-0.034c0.231-0.01,0.461-0.021,0.723-0.068l0.946-0.224  c0.23-0.068,0.453-0.167,0.674-0.267l0.279-0.124c1.149-0.574,2.011-1.391,2.704-2.047l0.086-0.082  c0.709-0.692,1.315-1.237,1.971-1.656c1.138-0.75,2.542-1.13,4.174-1.13l0.196-0.001c0.227-0.019,0.461,0.004,0.693,0.024  c0.159,0.015,0.317,0.028,0.454,0.033l0.194,0.013c0.332,0.021,0.645,0.041,0.948,0.104l1.117,0.224  c0.363,0.077,0.725,0.182,1.085,0.292c1.267,0.373,2.604,0.863,4.086,1.498c1.251,0.538,2.392,1.068,3.391,1.575  c0.981,0.495,1.842,0.957,2.564,1.376c0.359,0.203,0.67,0.407,0.941,0.584c0.277,0.181,0.517,0.336,0.724,0.444  c1.266,0.669,2.768-0.087,3.234-1.544C91.643,64.727,91.299,63.444,90.211,62.972z"></path>
</svg>